# xmcd
#
# Track frame offsets: 
#        150
#        18834
#        34109
#        49964
#        66583
#        82086
#        103654
#        121092
#        134733
#        149307
#        166500
#        180425
#        197011
#        214477
#        228767
#        244142
#        265712
#        293902
#        312892
#        329723
#
# Disc length: 4665 seconds
#
# Revision: 0
# Processed by: cddbd v1.5.1PL0 Copyright (c) Steve Scherf et al.
# Submitted via: ExactAudioCopy v0.95a3
#
DISCID=29123714
DTITLE=Various Artist - DREAM DANCE VOL.31 [CD ¹2)
DYEAR=2003
DGENRE=Dreams
TTITLE0=Jens - Loops&Tings - Reloped(Marco V Mix edit)
TTITLE1=Rank1 - It's Up To Tou(Symsonic)(instrumental dub mix)
TTITLE2=Peran - We Want To Be Free (Club radio mix)
TTITLE3=Clokx - Clokx (radio edit)
TTITLE4=Gargantua - Dreamsceape
TTITLE5=Noise Ltd. - Masque (Single edit
TTITLE6=Chris Raven - Ask &Answer
TTITLE7=Dr. R and Dr. K - Path To Paradise
TTITLE8=Jushi - Indoca (Single Mix)
TTITLE9=DJ Lee - X-Perience (single edit)
TTITLE10=Jesper - Monastery Hill (short cut)
TTITLE11=Ocean Lab - Satellite (radio edit)
TTITLE12=Armin van Burren - Burnes With Desire (Ronski speed mix)
TTITLE13=Sun Decade - Follow Me (Kyau vs. Albert radio)
TTITLE14=Guardian Angel - Time To Surrender
TTITLE15=Talla 2XLC presents Digital Tension - A Dream Within Dream (D
TTITLE15=J Precisions's remix)
TTITLE16=BBE - Seven Days and One Week (Tomcraft remix)
TTITLE17=Ayu - Depend On You (Svenson and Gielen radio edit)
TTITLE18=Schiler mit Peter Heppner - Leben... I Feel You (single versi
TTITLE18=on)
TTITLE19=Blank and Jones - Counting Clouds
EXTD=
EXTT0=
EXTT1=
EXTT2=
EXTT3=
EXTT4=
EXTT5=
EXTT6=
EXTT7=
EXTT8=
EXTT9=
EXTT10=
EXTT11=
EXTT12=
EXTT13=
EXTT14=
EXTT15=
EXTT16=
EXTT17=
EXTT18=
EXTT19=
PLAYORDER=
